<svg width="753.001" height="74.547" viewBox="0 0 753.001 74.547" xmlns="http://www.w3.org/2000/svg"><g id="svgGroup" stroke-linecap="round" fill-rule="evenodd" font-size="9pt" stroke="#252423" stroke-width="0" fill="#252423" style="stroke:#252423;stroke-width:0;fill:#252423"><path d="M 158.545 52.274 L 147.909 52.274 L 138 23.728 L 139.455 73.637 L 125.818 73.637 L 125.818 0.91 L 141.273 0.91 L 153.455 37.546 L 165.545 0.91 L 180.545 0.91 L 180.545 73.637 L 167 73.637 L 168.273 24.092 L 158.545 52.274 Z M 306.364 73.637 L 287.636 73.637 L 267.818 21.819 L 267.818 73.637 L 254.545 73.637 L 254.545 0.91 L 272.091 0.91 L 293.091 55.819 L 293.091 0.91 L 306.364 0.91 L 306.364 73.637 Z M 560.909 73.637 L 542.182 73.637 L 522.364 21.819 L 522.364 73.637 L 509.091 73.637 L 509.091 0.91 L 526.636 0.91 L 547.636 55.819 L 547.636 0.91 L 560.909 0.91 L 560.909 73.637 Z M 243.273 73.637 L 190.909 73.637 L 190.909 0.91 L 243.273 0.91 L 243.273 12.91 L 206.364 12.91 L 206.364 28.728 L 238.727 28.728 L 238.727 40.728 L 206.364 40.728 L 206.364 61.637 L 243.273 61.637 L 243.273 73.637 Z M 316.364 65.637 L 321.182 54.274 A 42.346 42.346 0 0 0 331.591 60.274 Q 337.091 62.455 344.182 62.455 A 22.249 22.249 0 0 0 347.334 62.247 Q 348.946 62.016 350.252 61.528 A 9.065 9.065 0 0 0 352.818 60.092 A 7.572 7.572 0 0 0 355.7 54.568 A 9.932 9.932 0 0 0 355.727 53.819 A 10.128 10.128 0 0 0 355.447 51.353 A 6.219 6.219 0 0 0 352.545 47.365 A 17.082 17.082 0 0 0 350.636 46.399 Q 347.295 44.933 341.091 43.365 A 79.971 79.971 0 0 1 334.878 41.607 Q 328.806 39.599 325.255 37.061 A 16.922 16.922 0 0 1 323.409 35.546 Q 318.863 31.209 318.488 23.273 A 30.842 30.842 0 0 1 318.455 21.819 A 22.99 22.99 0 0 1 319.679 14.168 A 19.681 19.681 0 0 1 324.909 6.228 A 20.801 20.801 0 0 1 333.088 1.601 Q 337.645 0.183 343.545 0.183 A 40.18 40.18 0 0 1 357.182 2.592 A 44.36 44.36 0 0 1 362.616 4.935 Q 365.818 6.592 368.273 8.637 L 364.091 19.546 A 48.493 48.493 0 0 0 357.919 15.832 A 40.922 40.922 0 0 0 354.182 14.183 A 29.061 29.061 0 0 0 343.727 12.274 A 19.039 19.039 0 0 0 340.954 12.462 Q 339.536 12.671 338.389 13.113 A 8.043 8.043 0 0 0 336.364 14.228 A 6.294 6.294 0 0 0 334.02 18.048 A 9.805 9.805 0 0 0 333.818 20.092 A 7.903 7.903 0 0 0 334.306 22.924 A 6.996 6.996 0 0 0 336.773 26.092 Q 339.727 28.274 348.909 30.546 A 71.933 71.933 0 0 1 355.156 32.283 Q 362.706 34.785 366.273 38.319 A 15.53 15.53 0 0 1 370.156 44.927 Q 370.909 47.38 371.109 50.339 A 32.74 32.74 0 0 1 371.182 52.546 A 23.516 23.516 0 0 1 370.207 59.498 A 18.013 18.013 0 0 1 363.636 68.774 Q 356.616 74.06 345.582 74.428 A 50.209 50.209 0 0 1 343.909 74.455 A 55.07 55.07 0 0 1 335.859 73.894 A 41.365 41.365 0 0 1 328.5 72.137 Q 321.727 69.819 316.364 65.637 Z M 698.182 65.637 L 703 54.274 A 42.346 42.346 0 0 0 713.409 60.274 Q 718.909 62.455 726 62.455 A 22.249 22.249 0 0 0 729.152 62.247 Q 730.764 62.016 732.07 61.528 A 9.065 9.065 0 0 0 734.636 60.092 A 7.572 7.572 0 0 0 737.518 54.568 A 9.932 9.932 0 0 0 737.545 53.819 A 10.128 10.128 0 0 0 737.265 51.353 A 6.219 6.219 0 0 0 734.364 47.365 A 17.082 17.082 0 0 0 732.455 46.399 Q 729.114 44.933 722.909 43.365 A 79.971 79.971 0 0 1 716.696 41.607 Q 710.625 39.599 707.073 37.061 A 16.922 16.922 0 0 1 705.227 35.546 Q 700.681 31.209 700.306 23.273 A 30.842 30.842 0 0 1 700.273 21.819 A 22.99 22.99 0 0 1 701.497 14.168 A 19.681 19.681 0 0 1 706.727 6.228 A 20.801 20.801 0 0 1 714.906 1.601 Q 719.463 0.183 725.364 0.183 A 40.18 40.18 0 0 1 739 2.592 A 44.36 44.36 0 0 1 744.434 4.935 Q 747.636 6.592 750.091 8.637 L 745.909 19.546 A 48.493 48.493 0 0 0 739.737 15.832 A 40.922 40.922 0 0 0 736 14.183 A 29.061 29.061 0 0 0 725.545 12.274 A 19.039 19.039 0 0 0 722.772 12.462 Q 721.354 12.671 720.207 13.113 A 8.043 8.043 0 0 0 718.182 14.228 A 6.294 6.294 0 0 0 715.838 18.048 A 9.805 9.805 0 0 0 715.636 20.092 A 7.903 7.903 0 0 0 716.124 22.924 A 6.996 6.996 0 0 0 718.591 26.092 Q 721.545 28.274 730.727 30.546 A 71.933 71.933 0 0 1 736.974 32.283 Q 744.524 34.785 748.091 38.319 A 15.53 15.53 0 0 1 751.975 44.927 Q 752.728 47.38 752.928 50.339 A 32.74 32.74 0 0 1 753 52.546 A 23.516 23.516 0 0 1 752.026 59.498 A 18.013 18.013 0 0 1 745.455 68.774 Q 738.434 74.06 727.4 74.428 A 50.209 50.209 0 0 1 725.727 74.455 A 55.07 55.07 0 0 1 717.677 73.894 A 41.365 41.365 0 0 1 710.318 72.137 Q 703.545 69.819 698.182 65.637 Z M 115.455 73.637 L 63.636 73.637 L 63.636 61.637 L 81.818 61.637 L 81.818 12.91 L 63.636 12.91 L 63.636 0.91 L 115.455 0.91 L 115.455 12.91 L 97.273 12.91 L 97.273 61.637 L 115.455 61.637 L 115.455 73.637 Z M 433.636 73.637 L 381.818 73.637 L 381.818 61.637 L 400 61.637 L 400 12.91 L 381.818 12.91 L 381.818 0.91 L 433.636 0.91 L 433.636 12.91 L 415.455 12.91 L 415.455 61.637 L 433.636 61.637 L 433.636 73.637 Z M 634 48.365 L 649.455 47.365 A 60.673 60.673 0 0 0 649.85 51.329 Q 650.656 57.249 652.5 59.546 A 7.067 7.067 0 0 0 655.421 61.649 Q 657.628 62.546 660.909 62.546 A 16.159 16.159 0 0 0 663.891 62.29 Q 667.119 61.683 668.909 59.637 A 8.038 8.038 0 0 0 670.305 57.249 Q 671.22 54.911 671.407 51.3 A 37.543 37.543 0 0 0 671.455 49.365 L 671.455 12.91 L 651.364 12.91 L 651.364 0.91 L 686.909 0.91 L 686.909 50.001 A 34.412 34.412 0 0 1 686.179 57.312 Q 685.161 61.997 682.719 65.516 A 19.85 19.85 0 0 1 680.591 68.092 A 19.372 19.372 0 0 1 673.14 72.725 Q 668.051 74.546 661 74.546 Q 652.646 74.546 647.006 72.178 A 19.003 19.003 0 0 1 641.045 68.319 Q 636.243 63.653 634.682 54.774 A 50.617 50.617 0 0 1 634 48.365 Z M 25.091 73.637 L 0 73.637 L 0 0.91 L 25.182 0.91 Q 37.651 0.91 44.841 7.847 A 23.135 23.135 0 0 1 45.136 8.137 A 24.212 24.212 0 0 1 51.883 21.494 A 34.415 34.415 0 0 1 52.364 27.365 L 52.364 47.546 A 31.786 31.786 0 0 1 51.347 55.801 A 23.169 23.169 0 0 1 45.136 66.546 A 23.812 23.812 0 0 1 34.086 72.598 Q 29.998 73.637 25.091 73.637 Z M 444.909 50.365 L 444.909 24.546 A 32.113 32.113 0 0 1 445.709 17.159 A 21.112 21.112 0 0 1 451.682 6.455 A 21.633 21.633 0 0 1 460.166 1.564 Q 465.056 0.001 471.455 0.001 A 41.784 41.784 0 0 1 478.963 0.631 Q 483.108 1.39 486.36 3.06 A 19.936 19.936 0 0 1 491.136 6.455 A 21.102 21.102 0 0 1 496.955 16.852 Q 497.818 20.365 497.818 24.546 L 497.818 50.365 Q 497.818 61.91 491.091 68.228 Q 485.529 73.452 475.679 74.357 A 47.207 47.207 0 0 1 471.364 74.546 A 42.739 42.739 0 0 1 463.851 73.929 Q 456.261 72.572 451.636 68.228 Q 444.909 61.91 444.909 50.365 Z M 624.727 48.274 L 572.545 48.274 L 572.545 34.728 L 624.727 34.728 L 624.727 48.274 Z M 15.455 12.91 L 15.455 61.637 L 23.818 61.637 Q 30.909 61.637 33.909 58.001 Q 36.909 54.365 36.909 46.274 L 36.909 28.637 A 35.381 35.381 0 0 0 36.672 24.387 Q 36.134 19.951 34.37 17.315 A 9.518 9.518 0 0 0 33.909 16.683 Q 31.495 13.647 26.432 13.054 A 22.502 22.502 0 0 0 23.818 12.91 L 15.455 12.91 Z M 482.364 49.092 L 482.364 25.819 A 33.86 33.86 0 0 0 482.184 22.199 Q 481.687 17.598 479.818 15.228 Q 477.716 12.563 473.319 12.099 A 18.651 18.651 0 0 0 471.364 12.001 A 17.032 17.032 0 0 0 468.306 12.256 Q 466.634 12.562 465.343 13.234 A 7.421 7.421 0 0 0 462.909 15.228 A 9.551 9.551 0 0 0 461.46 17.936 Q 460.52 20.551 460.386 24.475 A 39.339 39.339 0 0 0 460.364 25.819 L 460.364 49.092 A 33.987 33.987 0 0 0 460.523 52.504 Q 461 57.217 462.909 59.501 Q 464.921 61.908 469.036 62.413 A 19.164 19.164 0 0 0 471.364 62.546 Q 474.95 62.546 477.297 61.424 A 7.376 7.376 0 0 0 479.818 59.501 A 8.672 8.672 0 0 0 481.241 56.967 Q 482.164 54.514 482.328 50.774 A 38.339 38.339 0 0 0 482.364 49.092 Z" vector-effect="non-scaling-stroke"/></g></svg>